<svg width="52" height="52" viewBox="0 0 52 52" fill="none" xmlns="http://www.w3.org/2000/svg">
<g clip-path="url(#clip0_117_1715)">
<ellipse cx="25.5824" cy="25.5824" rx="25.5824" ry="25.5824" fill="#00415C"/>
<path d="M25.6821 19.38C26.3488 19.38 26.9588 19.48 27.5121 19.68C28.0654 19.8733 28.5388 20.15 28.9321 20.51C29.3254 20.87 29.6321 21.3033 29.8521 21.81C30.0721 22.3167 30.1821 22.88 30.1821 23.5C30.1821 24.0333 30.1021 24.5267 29.9421 24.98C29.7888 25.4333 29.5788 25.8667 29.3121 26.28C29.0521 26.6933 28.7454 27.0933 28.3921 27.48C28.0388 27.8667 27.6688 28.26 27.2821 28.66L24.0221 31.99C24.3421 31.8967 24.6554 31.8267 24.9621 31.78C25.2688 31.7267 25.5621 31.7 25.8421 31.7H29.5521C29.8188 31.7 30.0288 31.7767 30.1821 31.93C30.3421 32.0767 30.4221 32.2733 30.4221 32.52V34H20.5021V33.18C20.5021 33.0133 20.5354 32.84 20.6021 32.66C20.6754 32.48 20.7888 32.3133 20.9421 32.16L25.3321 27.76C25.6988 27.3867 26.0254 27.03 26.3121 26.69C26.6054 26.35 26.8488 26.0133 27.0421 25.68C27.2421 25.3467 27.3921 25.01 27.4921 24.67C27.5988 24.3233 27.6521 23.96 27.6521 23.58C27.6521 23.2333 27.6021 22.93 27.5021 22.67C27.4021 22.4033 27.2588 22.18 27.0721 22C26.8854 21.82 26.6621 21.6867 26.4021 21.6C26.1488 21.5067 25.8621 21.46 25.5421 21.46C24.9488 21.46 24.4588 21.61 24.0721 21.91C23.6921 22.21 23.4254 22.6133 23.2721 23.12C23.1988 23.3733 23.0888 23.5567 22.9421 23.67C22.7954 23.7767 22.6088 23.83 22.3821 23.83C22.2821 23.83 22.1721 23.82 22.0521 23.8L20.7521 23.57C20.8521 22.8767 21.0454 22.27 21.3321 21.75C21.6188 21.2233 21.9754 20.7867 22.4021 20.44C22.8354 20.0867 23.3288 19.8233 23.8821 19.65C24.4421 19.47 25.0421 19.38 25.6821 19.38Z" fill="white"/>
</g>
<defs>
<clipPath id="clip0_117_1715">
<rect width="51.1649" height="51.1649" fill="white"/>
</clipPath>
</defs>
</svg>
