<svg width="100" height="100" viewBox="0 0 100 100" fill="none" xmlns="http://www.w3.org/2000/svg">
<path d="M45.603 56.385C45.6221 56.3703 45.6407 56.355 45.6587 56.3392C45.6759 56.324 45.6926 56.3083 45.7088 56.2921C45.7777 56.2232 45.8376 56.147 45.8883 56.0636C46.0303 55.8303 46.1012 55.5403 46.1012 55.1935C46.1012 54.7226 45.9704 54.3629 45.7088 54.1144C45.5591 53.9646 45.3665 53.86 45.1313 53.8005C44.9761 53.7612 44.8024 53.7416 44.6101 53.7416H40.678L42.9425 51.505C43.2709 51.1837 43.5623 50.8722 43.8167 50.5704C43.8414 50.5411 43.8658 50.5118 43.8899 50.4826C44.0715 50.2623 44.2331 50.0472 44.3747 49.8374C44.7409 49.3142 45.0025 48.791 45.1595 48.2679C45.3295 47.7447 45.4145 47.2084 45.4145 46.6591C45.4145 45.7827 45.2249 45.0503 44.8456 44.4617C44.4663 43.8601 43.9104 43.4023 43.1779 43.0884C42.848 42.9444 42.481 42.8335 42.0768 42.7555C41.5996 42.6635 41.0707 42.6175 40.4901 42.6175C40.3201 42.6175 40.15 42.6224 39.98 42.6321C39.4961 42.6598 39.0121 42.7268 38.5282 42.8333C38.468 42.8468 38.4079 42.8612 38.3481 42.8763L38.3003 42.8885L38.2495 42.902C37.98 42.9743 37.7141 43.0632 37.4516 43.1685C37.1904 43.2733 36.9326 43.3945 36.6784 43.532L36.6643 43.5396C36.619 43.564 36.5756 43.5893 36.534 43.6156C36.2634 43.7864 36.0714 43.9965 35.958 44.2459C35.8273 44.5206 35.7815 44.8018 35.8207 45.0895C35.873 45.3773 35.9907 45.6323 36.1739 45.8547C36.3701 46.077 36.6055 46.2209 36.8802 46.2863C37.1679 46.3517 37.4884 46.3059 37.8415 46.149C37.902 46.1177 37.9619 46.088 38.0213 46.0596L38.0313 46.0549C38.2716 45.9408 38.5023 45.8506 38.7234 45.7843C38.8102 45.7583 38.8956 45.736 38.9794 45.7173C39.038 45.7022 39.096 45.6882 39.1535 45.6756L39.1656 45.6729C39.4504 45.611 39.7218 45.58 39.98 45.58C40.1627 45.58 40.3328 45.591 40.4901 45.613C40.7628 45.651 40.9973 45.7221 41.1936 45.8262C41.265 45.864 41.3313 45.9062 41.3926 45.9528C41.7196 46.2013 41.8831 46.5741 41.8831 47.0711C41.8831 47.4635 41.7719 47.8558 41.5495 48.2482C41.4959 48.3488 41.4323 48.4546 41.3589 48.5655C41.2099 48.7906 41.0202 49.0369 40.7898 49.3045L40.7801 49.3156C40.6839 49.427 40.5807 49.5421 40.4705 49.6608L37.0371 53.2511C36.8835 53.4124 36.7458 53.5759 36.6237 53.7416L36.6078 53.7634L36.593 53.784C36.5192 53.8867 36.4514 53.9903 36.3897 54.0948C36.2327 54.3825 36.1542 54.7095 36.1542 55.0757C36.1542 55.5989 36.2785 55.9978 36.527 56.2725C36.7068 56.4523 36.9608 56.5703 37.289 56.6266C37.4382 56.6521 37.6028 56.6649 37.7826 56.6649H44.6101C45.0295 56.6649 45.3604 56.5716 45.603 56.385Z" fill="#00415C"/>
<path fill-rule="evenodd" clip-rule="evenodd" d="M52.9407 54.3498V55.0561C52.9407 55.6447 53.0911 56.0894 53.3919 56.3902C53.7058 56.6911 54.1374 56.8415 54.6868 56.8415C55.246 56.8415 55.6695 56.6927 55.9571 56.3953L55.962 56.3902C56.1317 56.2132 56.2535 55.9945 56.3275 55.7342C56.3847 55.5331 56.4133 55.307 56.4133 55.0561V54.3498H56.8841C57.3515 54.3498 57.709 54.2457 57.9566 54.0376C57.9723 54.0243 57.9876 54.0107 58.0024 53.9967C58.1048 53.9045 58.1871 53.7964 58.2494 53.6722C58.2724 53.6264 58.2927 53.5784 58.3102 53.5282C58.3666 53.3669 58.3948 53.183 58.3948 52.9765C58.3948 52.6456 58.318 52.3724 58.1642 52.1568C58.1242 52.1007 58.079 52.0484 58.0285 52.0001C58.02 51.9919 58.0113 51.9839 58.0024 51.9759C57.9876 51.9618 57.9723 51.9482 57.9566 51.935C57.9025 51.8895 57.843 51.8489 57.7783 51.8133C57.5473 51.6863 57.2492 51.6227 56.8841 51.6227H56.4133V44.4421C56.4133 43.8404 56.2694 43.3957 55.9817 43.108C55.6939 42.8072 55.3015 42.6567 54.8045 42.6567C54.3598 42.6567 53.9739 42.7483 53.647 42.9314C53.32 43.1145 53.0257 43.4023 52.7641 43.7947L47.977 50.7791C47.8992 50.8874 47.8275 50.9917 47.762 51.092C47.6692 51.2341 47.5886 51.3683 47.5204 51.4946C47.4968 51.5383 47.4747 51.581 47.454 51.6227C47.4134 51.7049 47.3785 51.7833 47.3492 51.8582C47.2687 52.0548 47.2158 52.2575 47.1903 52.4664C47.1863 52.4992 47.183 52.5323 47.1803 52.5654C47.1781 52.5929 47.1764 52.6204 47.1752 52.6481C47.1735 52.6854 47.1726 52.7229 47.1726 52.7607C47.1726 53.2969 47.3296 53.6958 47.6435 53.9574C47.9705 54.219 48.4217 54.3498 48.9972 54.3498H52.9407ZM52.9407 51.6227V47.8078L50.37 51.6227H52.9407Z" fill="#00415C"/>
<path d="M59.1077 49.2073C59.1242 49.1198 59.1488 49.0398 59.1816 48.9673C59.2234 48.8746 59.2785 48.794 59.347 48.7256C59.4152 48.6574 59.4944 48.6023 59.5845 48.5605C59.7236 48.496 59.8887 48.4629 60.0798 48.4614L60.0938 48.4613C60.1252 48.4613 60.156 48.4622 60.186 48.4638C60.198 48.4644 60.2098 48.4652 60.2215 48.466C60.4892 48.4864 60.6994 48.5729 60.8521 48.7256C60.8858 48.7579 60.9165 48.793 60.944 48.8307C61.0514 48.9778 61.1117 49.1661 61.125 49.3954C61.1269 49.4279 61.1278 49.4613 61.1278 49.4954V51.702C61.1896 51.6185 61.2569 51.5411 61.3298 51.4698C61.4472 51.355 61.579 51.256 61.7253 51.1729C61.8565 51.1 61.9944 51.041 62.1389 50.9958C62.1768 50.984 62.2151 50.9731 62.2539 50.9632C62.456 50.9115 62.6704 50.8856 62.8972 50.8856C63.3492 50.8856 63.7207 50.9737 64.0117 51.1499C64.0973 51.1995 64.1767 51.2577 64.2497 51.3244C64.2604 51.3342 64.271 51.3442 64.2814 51.3544L64.2976 51.3705L64.2991 51.3719C64.4512 51.5254 64.5738 51.7195 64.6666 51.9542C64.8122 52.3142 64.8849 52.7699 64.8849 53.3214V55.7342C64.8849 56.0713 64.7969 56.3279 64.6207 56.504C64.5095 56.6153 64.3677 56.6914 64.1954 56.7324C64.0948 56.7563 63.9838 56.7683 63.8624 56.7683C63.533 56.7683 63.2802 56.6802 63.1041 56.504C62.9279 56.3279 62.8398 56.0713 62.8398 55.7342V53.4019C62.8398 53.3744 62.8394 53.3476 62.8386 53.3214C62.8373 53.2755 62.8347 53.2315 62.831 53.1894L62.8278 53.1574L62.8257 53.1381L62.8227 53.1144L62.8209 53.1012C62.8129 53.0442 62.8025 52.9913 62.7894 52.9425C62.7692 52.8667 62.743 52.8009 62.7106 52.7449L62.7027 52.7316C62.6882 52.708 62.6727 52.6864 62.656 52.6665C62.6114 52.6101 62.5582 52.5646 62.4964 52.5301C62.4885 52.5256 62.4804 52.5214 62.4722 52.5173C62.4081 52.4855 62.3353 52.4647 62.2539 52.4549C62.2173 52.4504 62.179 52.4482 62.1389 52.4482C62.0456 52.4482 61.9579 52.4575 61.8759 52.476C61.7562 52.503 61.6486 52.5497 61.5532 52.6161C61.4995 52.6535 61.4496 52.6971 61.4036 52.747C61.3385 52.8148 61.2849 52.8913 61.2428 52.9765C61.1818 53.1 61.1451 53.2418 61.1326 53.4019C61.1294 53.4428 61.1278 53.4849 61.1278 53.5282V55.7342C61.1278 56.4236 60.7832 56.7683 60.0938 56.7683C59.9779 56.7683 59.8715 56.7569 59.7746 56.734C59.7423 56.7264 59.7111 56.7176 59.6809 56.7074C59.571 56.6705 59.4749 56.6169 59.3927 56.5464C59.3835 56.5385 59.3745 56.5304 59.3656 56.5221C59.3593 56.5162 59.3531 56.5102 59.347 56.504C59.1708 56.3279 59.0827 56.0713 59.0827 55.7342V49.4954C59.0827 49.3918 59.091 49.2957 59.1077 49.2073Z" fill="#00415C"/>
<path fill-rule="evenodd" clip-rule="evenodd" d="M8.33398 49.4993C8.33398 26.487 26.988 7.83301 50.0002 7.83301C73.0125 7.83301 91.6665 26.487 91.6665 49.4993C91.6665 72.5115 73.0125 91.1655 50.0002 91.1655C26.988 91.1655 8.33398 72.5115 8.33398 49.4993ZM34.2846 58.5149C34.2473 58.4776 34.2109 58.4393 34.1754 58.4001C33.2167 57.3404 32.983 56.062 32.983 55.0757C32.983 54.2423 33.1659 53.3824 33.6057 52.5762C33.6231 52.5443 33.641 52.5128 33.6595 52.4815C33.967 51.9611 34.3351 51.49 34.7407 51.0641L34.7452 51.0594L36.3232 49.4092C36.2748 49.3999 36.2262 49.3898 36.1773 49.3787L36.1456 49.3713C35.2014 49.1465 34.402 48.6396 33.796 47.9528C33.7721 47.9258 33.7488 47.8984 33.7259 47.8706C33.1934 47.224 32.8482 46.4683 32.7007 45.6568C32.6923 45.6107 32.6849 45.5644 32.6786 45.518C32.5531 44.598 32.7087 43.7049 33.0833 42.907C33.5603 41.8755 34.3519 41.1844 35.1548 40.7507C36.0017 40.291 36.8963 39.9495 37.8336 39.7391L37.8468 39.7361C38.7192 39.5442 39.6016 39.4463 40.4901 39.4463C41.8453 39.4463 43.2018 39.6409 44.4366 40.1776C45.6773 40.7113 46.7596 41.5577 47.5198 42.7573C47.9039 43.3566 48.1687 43.9924 48.3384 44.6426L50.1385 42.0161C50.6069 41.3185 51.2424 40.6434 52.0975 40.1645C52.9791 39.6708 53.9187 39.4855 54.8045 39.4855C55.9765 39.4855 57.2523 39.8638 58.2495 40.8913C59.3434 42.0029 59.5845 43.4074 59.5845 44.4421V45.3179C59.7604 45.2986 59.931 45.2901 60.0938 45.2901C60.9761 45.2901 62.1311 45.5354 63.0705 46.4594C63.4998 46.8776 63.7896 47.343 63.9794 47.81C64.5225 47.9098 65.0856 48.0979 65.6276 48.4212C66.621 49.0053 67.2529 49.8777 67.6107 50.7756C67.9554 51.6333 68.0562 52.5237 68.0562 53.3214V55.7342C68.0562 56.6074 67.8195 57.79 66.8631 58.7464C65.9195 59.69 64.7522 59.9395 63.8624 59.9395C63.3058 59.9395 62.6406 59.8419 61.9895 59.5378C61.31 59.8538 60.6257 59.9395 60.0938 59.9395C59.3377 59.9395 58.411 59.7568 57.5847 59.1568C56.6444 59.8143 55.5797 60.0127 54.6868 60.0127C53.545 60.0127 52.2468 59.6852 51.1977 58.6798C51.1815 58.6642 51.1654 58.6485 51.1495 58.6326C50.8021 58.2851 50.5361 57.9085 50.3348 57.521H48.9972C48.9036 57.521 48.8083 57.5191 48.7116 57.515C48.5196 57.8709 48.2702 58.2155 47.9512 58.5345C46.9126 59.5731 45.6114 59.8361 44.6101 59.8361H37.7826C36.8211 59.8361 35.3997 59.63 34.2846 58.5149ZM43.1687 26.5865C43.9974 26.3285 44.8285 26.1164 45.6595 25.9488C58.9332 23.3617 71.8515 31.9309 74.6005 45.2093C76.8826 56.2324 71.4441 67.0595 61.9734 72.0761C61.8844 72.111 61.7962 72.1505 61.7092 72.1946C60.7248 72.6934 59.695 73.132 58.6227 73.5039L59.3836 71.4826C59.9686 69.9282 59.1828 68.1939 57.6284 67.6088C56.0741 67.0238 54.3397 67.8096 53.7547 69.364L50.7657 77.3053C50.2797 78.5964 50.7346 80.0527 51.8691 80.8376L58.5732 85.4759C59.939 86.4209 61.8122 86.0797 62.7572 84.7139C63.7021 83.3481 63.361 81.4749 61.9952 80.5299L60.2709 79.337C66.0506 77.3825 70.9401 73.8141 74.5297 69.2556C74.6794 69.1246 74.8182 68.9767 74.9434 68.8123C77.0356 66.0658 78.6545 62.983 79.7277 59.7015C79.8101 59.4496 79.8575 59.1946 79.8725 58.9418C80.9972 55.1502 81.4015 51.0968 80.9586 46.9747C81.0065 46.685 81.0125 46.3834 80.9711 46.0772C80.7429 44.3937 80.3719 42.7083 79.8512 41.0361C79.3306 39.3639 78.6792 37.7658 77.9113 36.2504C77.7726 35.9767 77.5979 35.7334 77.3958 35.5231C75.4508 31.9458 72.8349 28.8415 69.7479 26.3415C69.5829 26.1193 69.3844 25.9163 69.1532 25.7402C66.4068 23.648 63.324 22.0292 60.0424 20.956C59.8234 20.8843 59.6021 20.8391 59.3819 20.8187C55.4122 19.6002 51.1484 19.1732 46.8143 19.685C46.6835 19.6855 46.5512 19.6946 46.4181 19.7126C45.0806 19.8939 43.7419 20.1653 42.4095 20.5303C34.223 22.7215 27.6264 28.0795 23.6832 34.9825C23.5402 35.2329 23.4371 35.4951 23.372 35.7619C22.5429 37.3235 21.848 38.9562 21.2969 40.6412C20.7796 42.223 21.6425 43.9246 23.2242 44.4419C24.8059 44.9592 26.5076 44.0963 27.0249 42.5146C27.8885 39.874 29.1916 37.3924 30.8752 35.1824C31.0223 34.9893 31.1425 34.7842 31.2364 34.5714C33.3075 32.034 35.887 29.8976 38.8619 28.3338C39.0154 28.285 39.167 28.2233 39.3154 28.1481C40.5323 27.5315 41.8186 27.0069 43.1687 26.5865ZM22.6349 50.8749C24.284 50.6514 25.802 51.8071 26.0255 53.4562C26.2087 54.8081 26.507 56.1648 26.9274 57.515C27.3478 58.8651 27.8724 60.1513 28.4891 61.3683C29.2413 62.8528 28.6477 64.666 27.1632 65.4182C25.6787 66.1704 23.8655 65.5768 23.1133 64.0923C22.3454 62.5769 21.694 60.9788 21.1733 59.3066C20.6527 57.6344 20.2817 55.949 20.0535 54.2655C19.83 52.6164 20.9858 51.0984 22.6349 50.8749ZM35.5234 69.8085C34.1995 68.8 32.3088 69.0557 31.3004 70.3795C30.2919 71.7033 30.5475 73.594 31.8714 74.6025C34.6178 76.6947 37.7006 78.3135 40.9822 79.3868C42.5639 79.9041 44.2655 79.0412 44.7828 77.4594C45.3002 75.8777 44.4373 74.1761 42.8555 73.6588C40.2149 72.7952 37.7334 71.492 35.5234 69.8085Z" fill="#00415C"/>
<path d="M37.7826 56.6649C37.2071 56.6649 36.7886 56.5341 36.527 56.2725C36.2785 55.9978 36.1542 55.5989 36.1542 55.0757C36.1542 54.7095 36.2327 54.3825 36.3897 54.0948C36.5597 53.807 36.7755 53.5258 37.0371 53.2511L40.4705 49.6608C40.9806 49.1115 41.3403 48.6406 41.5495 48.2482C41.7719 47.8558 41.8831 47.4635 41.8831 47.0711C41.8831 46.5741 41.7196 46.2013 41.3926 45.9528C41.0656 45.7043 40.5947 45.58 39.98 45.58C39.6661 45.58 39.3326 45.6258 38.9794 45.7173C38.6263 45.7958 38.247 45.9397 37.8415 46.149C37.4884 46.3059 37.1679 46.3517 36.8802 46.2863C36.6055 46.2209 36.3701 46.077 36.1739 45.8547C35.9907 45.6323 35.873 45.3773 35.8207 45.0895C35.7815 44.8018 35.8273 44.5206 35.958 44.2459C36.0888 43.9582 36.3243 43.7227 36.6643 43.5396C37.266 43.2126 37.8873 42.9772 38.5282 42.8333C39.1821 42.6894 39.8361 42.6175 40.4901 42.6175C41.5626 42.6175 42.4586 42.7745 43.1779 43.0884C43.9104 43.4023 44.4663 43.8601 44.8456 44.4617C45.2249 45.0503 45.4145 45.7827 45.4145 46.6591C45.4145 47.2084 45.3295 47.7447 45.1595 48.2679C45.0025 48.791 44.7409 49.3142 44.3747 49.8374C44.0216 50.3606 43.5442 50.9165 42.9425 51.505L39.7642 54.6443V53.7418L44.6101 53.7416C45.0941 53.7416 45.4603 53.8659 45.7088 54.1144C45.9704 54.3629 46.1012 54.7226 46.1012 55.1935C46.1012 55.6643 45.9704 56.0305 45.7088 56.2921C45.4603 56.5406 45.0941 56.6649 44.6101 56.6649H37.7826Z" fill="#00415C"/>
<path d="M54.6868 56.8415C54.1374 56.8415 53.7058 56.6911 53.3919 56.3902C53.0911 56.0894 52.9407 55.6447 52.9407 55.0561V54.3498H48.9972C48.4217 54.3498 47.9705 54.219 47.6435 53.9574C47.3296 53.6958 47.1726 53.2969 47.1726 52.7607C47.1726 52.4468 47.2315 52.1459 47.3492 51.8582C47.4669 51.5574 47.6762 51.1977 47.977 50.7791L52.7641 43.7947C53.0257 43.4023 53.32 43.1145 53.647 42.9314C53.9739 42.7483 54.3598 42.6567 54.8045 42.6567C55.3015 42.6567 55.6939 42.8072 55.9817 43.108C56.2694 43.3957 56.4133 43.8404 56.4133 44.4421V51.6227H56.8841C57.3812 51.6227 57.7539 51.7405 58.0024 51.9759C58.264 52.2113 58.3948 52.5448 58.3948 52.9765C58.3948 53.4212 58.264 53.7612 58.0024 53.9967C57.7539 54.2321 57.3812 54.3498 56.8841 54.3498H56.4133V55.0561C56.4133 55.6316 56.2629 56.0763 55.962 56.3902C55.6743 56.6911 55.2492 56.8415 54.6868 56.8415ZM52.9407 51.6227L52.9407 46.9927H53.4901L49.8016 52.4665V51.6229L52.9407 51.6227Z" fill="#00415C"/>
<path d="M60.0938 56.7683C59.7721 56.7683 59.5231 56.6802 59.347 56.504C59.1708 56.3279 59.0827 56.0713 59.0827 55.7342V49.4954C59.0827 49.1584 59.1708 48.9018 59.347 48.7256C59.5231 48.5494 59.7721 48.4613 60.0938 48.4613C60.4232 48.4613 60.6759 48.5494 60.8521 48.7256C61.0359 48.9018 61.1278 49.1584 61.1278 49.4954L61.1279 52.0003H60.9441C61.1279 51.6403 61.3883 51.3644 61.7253 51.1729C62.07 50.9814 62.4606 50.8856 62.8972 50.8856C63.3492 50.8856 63.7207 50.9737 64.0117 51.1499C64.3028 51.3184 64.5211 51.5865 64.6666 51.9542C64.8122 52.3142 64.8849 52.7699 64.8849 53.3214V55.7342C64.8849 56.0713 64.7969 56.3279 64.6207 56.504C64.4445 56.6802 64.1917 56.7683 63.8624 56.7683C63.533 56.7683 63.2802 56.6802 63.1041 56.504C62.9279 56.3279 62.8398 56.0713 62.8398 55.7342V53.4019C62.8398 53.0572 62.7785 52.8121 62.656 52.6665C62.5411 52.521 62.3687 52.4482 62.1389 52.4482C61.8325 52.4482 61.5874 52.5478 61.4036 52.747C61.2198 52.9384 61.1278 53.1989 61.1278 53.5282V55.7342C61.1278 56.4236 60.7832 56.7683 60.0938 56.7683Z" fill="#00415C"/>
</svg>
