<svg width="52" height="52" viewBox="0 0 52 52" fill="none" xmlns="http://www.w3.org/2000/svg">
<g clip-path="url(#clip0_117_1719)">
<ellipse cx="25.5824" cy="25.5824" rx="25.5824" ry="25.5824" fill="#00415C"/>
<path d="M25.9121 19.38C26.5788 19.38 27.1788 19.4767 27.7121 19.67C28.2521 19.8567 28.7121 20.12 29.0921 20.46C29.4721 20.7933 29.7621 21.1867 29.9621 21.64C30.1688 22.0933 30.2721 22.5833 30.2721 23.11C30.2721 23.57 30.2188 23.9767 30.1121 24.33C30.0121 24.6767 29.8621 24.98 29.6621 25.24C29.4688 25.5 29.2288 25.72 28.9421 25.9C28.6621 26.08 28.3421 26.23 27.9821 26.35C28.8488 26.6233 29.4954 27.04 29.9221 27.6C30.3488 28.16 30.5621 28.8633 30.5621 29.71C30.5621 30.43 30.4288 31.0667 30.1621 31.62C29.8954 32.1733 29.5354 32.64 29.0821 33.02C28.6288 33.3933 28.1021 33.6767 27.5021 33.87C26.9088 34.0633 26.2788 34.16 25.6121 34.16C24.8854 34.16 24.2521 34.0767 23.7121 33.91C23.1721 33.7433 22.7021 33.4967 22.3021 33.17C21.9021 32.8433 21.5621 32.4433 21.2821 31.97C21.0021 31.4967 20.7621 30.95 20.5621 30.33L21.6521 29.88C21.8388 29.8 22.0288 29.76 22.2221 29.76C22.3954 29.76 22.5488 29.7967 22.6821 29.87C22.8221 29.9433 22.9288 30.05 23.0021 30.19C23.1221 30.4233 23.2521 30.6533 23.3921 30.88C23.5388 31.1067 23.7121 31.31 23.9121 31.49C24.1121 31.6633 24.3454 31.8067 24.6121 31.92C24.8854 32.0267 25.2088 32.08 25.5821 32.08C26.0021 32.08 26.3688 32.0133 26.6821 31.88C26.9954 31.74 27.2554 31.56 27.4621 31.34C27.6754 31.12 27.8321 30.8767 27.9321 30.61C28.0388 30.3367 28.0921 30.0633 28.0921 29.79C28.0921 29.4433 28.0554 29.13 27.9821 28.85C27.9088 28.5633 27.7554 28.32 27.5221 28.12C27.2888 27.92 26.9521 27.7633 26.5121 27.65C26.0788 27.5367 25.4954 27.48 24.7621 27.48V25.72C25.3688 25.7133 25.8721 25.6567 26.2721 25.55C26.6721 25.4433 26.9888 25.2967 27.2221 25.11C27.4621 24.9167 27.6288 24.6867 27.7221 24.42C27.8154 24.1533 27.8621 23.86 27.8621 23.54C27.8621 22.8533 27.6754 22.3367 27.3021 21.99C26.9288 21.6367 26.4188 21.46 25.7721 21.46C25.1854 21.46 24.6988 21.6167 24.3121 21.93C23.9254 22.2367 23.6554 22.6333 23.5021 23.12C23.4221 23.3733 23.3121 23.5567 23.1721 23.67C23.0321 23.7767 22.8488 23.83 22.6221 23.83C22.5154 23.83 22.4021 23.82 22.2821 23.8L20.9821 23.57C21.0821 22.8767 21.2754 22.27 21.5621 21.75C21.8488 21.2233 22.2054 20.7867 22.6321 20.44C23.0654 20.0867 23.5588 19.8233 24.1121 19.65C24.6721 19.47 25.2721 19.38 25.9121 19.38Z" fill="white"/>
</g>
<defs>
<clipPath id="clip0_117_1719">
<rect width="51.1649" height="51.1649" fill="white"/>
</clipPath>
</defs>
</svg>
