<svg width="328" height="64" viewBox="0 0 328 64" fill="none" xmlns="http://www.w3.org/2000/svg">
<rect width="328" height="64" rx="4" fill="#00415C"/>
<path d="M25.728 42V24.12H33.264C34.448 24.12 35.456 24.328 36.288 24.744C37.136 25.144 37.784 25.72 38.232 26.472C38.696 27.208 38.928 28.104 38.928 29.16C38.928 29.976 38.704 30.744 38.256 31.464C37.824 32.168 37.128 32.752 36.168 33.216V31.704C37.048 32.04 37.744 32.456 38.256 32.952C38.768 33.448 39.128 34 39.336 34.608C39.544 35.216 39.648 35.856 39.648 36.528C39.648 38.24 39.08 39.584 37.944 40.56C36.824 41.52 35.264 42 33.264 42H25.728ZM28.992 39.12H33.6C34.448 39.12 35.12 38.888 35.616 38.424C36.128 37.944 36.384 37.312 36.384 36.528C36.384 35.744 36.128 35.112 35.616 34.632C35.12 34.152 34.448 33.912 33.6 33.912H28.992V39.12ZM28.992 31.056H33.432C34.104 31.056 34.64 30.864 35.04 30.48C35.44 30.08 35.64 29.568 35.64 28.944C35.64 28.32 35.44 27.824 35.04 27.456C34.64 27.088 34.104 26.904 33.432 26.904H28.992V31.056ZM42.0578 42V23.832H45.2018V42H42.0578ZM54.4886 42.288C53.2086 42.288 52.0406 41.992 50.9846 41.4C49.9446 40.808 49.1126 40 48.4886 38.976C47.8806 37.952 47.5766 36.784 47.5766 35.472C47.5766 34.16 47.8806 32.992 48.4886 31.968C49.1126 30.944 49.9446 30.136 50.9846 29.544C52.0246 28.952 53.1926 28.656 54.4886 28.656C55.7686 28.656 56.9286 28.952 57.9686 29.544C59.0086 30.136 59.8326 30.944 60.4406 31.968C61.0646 32.976 61.3766 34.144 61.3766 35.472C61.3766 36.784 61.0646 37.952 60.4406 38.976C59.8166 40 58.9846 40.808 57.9446 41.4C56.9046 41.992 55.7526 42.288 54.4886 42.288ZM54.4886 39.408C55.1926 39.408 55.8086 39.24 56.3366 38.904C56.8806 38.568 57.3046 38.104 57.6086 37.512C57.9286 36.904 58.0886 36.224 58.0886 35.472C58.0886 34.704 57.9286 34.032 57.6086 33.456C57.3046 32.864 56.8806 32.4 56.3366 32.064C55.8086 31.712 55.1926 31.536 54.4886 31.536C53.7686 31.536 53.1366 31.712 52.5926 32.064C52.0486 32.4 51.6166 32.864 51.2966 33.456C50.9926 34.032 50.8406 34.704 50.8406 35.472C50.8406 36.224 50.9926 36.904 51.2966 37.512C51.6166 38.104 52.0486 38.568 52.5926 38.904C53.1366 39.24 53.7686 39.408 54.4886 39.408ZM70.0489 42.288C68.7529 42.288 67.5849 41.992 66.5449 41.4C65.5209 40.792 64.7129 39.976 64.1209 38.952C63.5289 37.912 63.2329 36.744 63.2329 35.448C63.2329 34.152 63.5289 32.992 64.1209 31.968C64.7129 30.944 65.5209 30.136 66.5449 29.544C67.5849 28.952 68.7529 28.656 70.0489 28.656C70.9769 28.656 71.8409 28.824 72.6409 29.16C73.4409 29.48 74.1289 29.928 74.7049 30.504C75.2969 31.064 75.7209 31.736 75.9769 32.52L73.2169 33.72C72.9769 33.064 72.5689 32.536 71.9929 32.136C71.4329 31.736 70.7849 31.536 70.0489 31.536C69.3609 31.536 68.7449 31.704 68.2009 32.04C67.6729 32.376 67.2569 32.84 66.9529 33.432C66.6489 34.024 66.4969 34.704 66.4969 35.472C66.4969 36.24 66.6489 36.92 66.9529 37.512C67.2569 38.104 67.6729 38.568 68.2009 38.904C68.7449 39.24 69.3609 39.408 70.0489 39.408C70.8009 39.408 71.4569 39.208 72.0169 38.808C72.5769 38.408 72.9769 37.872 73.2169 37.2L75.9769 38.448C75.7209 39.184 75.3049 39.848 74.7289 40.44C74.1529 41.016 73.4649 41.472 72.6649 41.808C71.8649 42.128 70.9929 42.288 70.0489 42.288ZM78.3624 42V23.832H81.5064V35.736L80.3064 35.376L86.4504 28.944H90.3624L85.5384 34.2L90.4584 42H86.8584L82.5864 35.232L84.4584 34.848L80.5224 39.072L81.5064 37.152V42H78.3624ZM98.2676 42.288C96.9716 42.288 95.8036 41.992 94.7636 41.4C93.7396 40.792 92.9316 39.976 92.3396 38.952C91.7476 37.912 91.4516 36.744 91.4516 35.448C91.4516 34.152 91.7476 32.992 92.3396 31.968C92.9316 30.944 93.7396 30.136 94.7636 29.544C95.8036 28.952 96.9716 28.656 98.2676 28.656C99.1956 28.656 100.06 28.824 100.86 29.16C101.66 29.48 102.348 29.928 102.924 30.504C103.516 31.064 103.94 31.736 104.196 32.52L101.436 33.72C101.196 33.064 100.788 32.536 100.212 32.136C99.6516 31.736 99.0036 31.536 98.2676 31.536C97.5796 31.536 96.9636 31.704 96.4196 32.04C95.8916 32.376 95.4756 32.84 95.1716 33.432C94.8676 34.024 94.7156 34.704 94.7156 35.472C94.7156 36.24 94.8676 36.92 95.1716 37.512C95.4756 38.104 95.8916 38.568 96.4196 38.904C96.9636 39.24 97.5796 39.408 98.2676 39.408C99.0196 39.408 99.6756 39.208 100.236 38.808C100.796 38.408 101.196 37.872 101.436 37.2L104.196 38.448C103.94 39.184 103.524 39.848 102.948 40.44C102.372 41.016 101.684 41.472 100.884 41.808C100.084 42.128 99.2116 42.288 98.2676 42.288ZM106.581 42V23.832H109.725V31.512L109.293 31.056C109.597 30.272 110.093 29.68 110.781 29.28C111.485 28.864 112.301 28.656 113.229 28.656C114.189 28.656 115.037 28.864 115.773 29.28C116.525 29.696 117.109 30.28 117.525 31.032C117.941 31.768 118.149 32.624 118.149 33.6V42H115.005V34.344C115.005 33.768 114.893 33.272 114.669 32.856C114.445 32.44 114.133 32.12 113.733 31.896C113.349 31.656 112.893 31.536 112.365 31.536C111.853 31.536 111.397 31.656 110.997 31.896C110.597 32.12 110.285 32.44 110.061 32.856C109.837 33.272 109.725 33.768 109.725 34.344V42H106.581ZM124.768 42.288C123.856 42.288 123.064 42.136 122.392 41.832C121.72 41.528 121.2 41.096 120.832 40.536C120.464 39.96 120.28 39.296 120.28 38.544C120.28 37.824 120.44 37.184 120.76 36.624C121.08 36.048 121.576 35.568 122.248 35.184C122.92 34.8 123.768 34.528 124.792 34.368L129.064 33.672V36.072L125.392 36.696C124.768 36.808 124.304 37.008 124 37.296C123.696 37.584 123.544 37.96 123.544 38.424C123.544 38.872 123.712 39.232 124.048 39.504C124.4 39.76 124.832 39.888 125.344 39.888C126 39.888 126.576 39.752 127.072 39.48C127.584 39.192 127.976 38.8 128.248 38.304C128.536 37.808 128.68 37.264 128.68 36.672V33.312C128.68 32.752 128.456 32.288 128.008 31.92C127.576 31.536 127 31.344 126.28 31.344C125.608 31.344 125.008 31.528 124.48 31.896C123.968 32.248 123.592 32.72 123.352 33.312L120.784 32.064C121.04 31.376 121.44 30.784 121.984 30.288C122.544 29.776 123.2 29.376 123.952 29.088C124.704 28.8 125.52 28.656 126.4 28.656C127.472 28.656 128.416 28.856 129.232 29.256C130.048 29.64 130.68 30.184 131.128 30.888C131.592 31.576 131.824 32.384 131.824 33.312V42H128.848V39.768L129.52 39.72C129.184 40.28 128.784 40.752 128.32 41.136C127.856 41.504 127.328 41.792 126.736 42C126.144 42.192 125.488 42.288 124.768 42.288ZM134.73 42V28.944H137.874V42H134.73ZM134.73 27.48V24.12H137.874V27.48H134.73ZM140.777 42V28.944H143.729V31.512L143.489 31.056C143.793 30.272 144.289 29.68 144.977 29.28C145.681 28.864 146.497 28.656 147.425 28.656C148.385 28.656 149.233 28.864 149.969 29.28C150.721 29.696 151.305 30.28 151.721 31.032C152.137 31.768 152.345 32.624 152.345 33.6V42H149.201V34.344C149.201 33.768 149.089 33.272 148.865 32.856C148.641 32.44 148.329 32.12 147.929 31.896C147.545 31.656 147.089 31.536 146.561 31.536C146.049 31.536 145.593 31.656 145.193 31.896C144.793 32.12 144.481 32.44 144.257 32.856C144.033 33.272 143.921 33.768 143.921 34.344V42H140.777ZM159.533 42V24.12H171.413V27H162.797V31.584H170.933V34.464H162.797V39.12H171.413V42H159.533ZM172.366 42L176.926 35.448L172.342 28.944H176.038L179.614 34.224H177.958L181.534 28.944H185.206L180.646 35.448L185.182 42H181.51L177.982 36.744H179.59L176.062 42H172.366ZM186.925 46.8V28.944H189.877V31.536L189.589 30.888C190.037 30.184 190.645 29.64 191.413 29.256C192.181 28.856 193.069 28.656 194.077 28.656C195.309 28.656 196.421 28.96 197.413 29.568C198.405 30.176 199.189 30.992 199.765 32.016C200.357 33.04 200.653 34.192 200.653 35.472C200.653 36.736 200.365 37.888 199.789 38.928C199.213 39.968 198.429 40.792 197.437 41.4C196.445 41.992 195.317 42.288 194.053 42.288C193.109 42.288 192.237 42.104 191.437 41.736C190.653 41.352 190.029 40.808 189.565 40.104L190.069 39.48V46.8H186.925ZM193.693 39.408C194.413 39.408 195.053 39.24 195.613 38.904C196.173 38.568 196.605 38.104 196.909 37.512C197.229 36.92 197.389 36.24 197.389 35.472C197.389 34.704 197.229 34.032 196.909 33.456C196.605 32.864 196.173 32.4 195.613 32.064C195.053 31.712 194.413 31.536 193.693 31.536C193.005 31.536 192.381 31.704 191.821 32.04C191.277 32.376 190.845 32.848 190.525 33.456C190.221 34.048 190.069 34.72 190.069 35.472C190.069 36.24 190.221 36.92 190.525 37.512C190.845 38.104 191.277 38.568 191.821 38.904C192.381 39.24 193.005 39.408 193.693 39.408ZM203.05 42V23.832H206.194V42H203.05ZM215.481 42.288C214.201 42.288 213.033 41.992 211.977 41.4C210.937 40.808 210.105 40 209.481 38.976C208.873 37.952 208.569 36.784 208.569 35.472C208.569 34.16 208.873 32.992 209.481 31.968C210.105 30.944 210.937 30.136 211.977 29.544C213.017 28.952 214.185 28.656 215.481 28.656C216.761 28.656 217.921 28.952 218.961 29.544C220.001 30.136 220.825 30.944 221.433 31.968C222.057 32.976 222.369 34.144 222.369 35.472C222.369 36.784 222.057 37.952 221.433 38.976C220.809 40 219.977 40.808 218.937 41.4C217.897 41.992 216.745 42.288 215.481 42.288ZM215.481 39.408C216.185 39.408 216.801 39.24 217.329 38.904C217.873 38.568 218.297 38.104 218.601 37.512C218.921 36.904 219.081 36.224 219.081 35.472C219.081 34.704 218.921 34.032 218.601 33.456C218.297 32.864 217.873 32.4 217.329 32.064C216.801 31.712 216.185 31.536 215.481 31.536C214.761 31.536 214.129 31.712 213.585 32.064C213.041 32.4 212.609 32.864 212.289 33.456C211.985 34.032 211.833 34.704 211.833 35.472C211.833 36.224 211.985 36.904 212.289 37.512C212.609 38.104 213.041 38.568 213.585 38.904C214.129 39.24 214.761 39.408 215.481 39.408ZM224.753 42V28.944H227.705V31.848L227.465 31.416C227.769 30.44 228.241 29.76 228.881 29.376C229.537 28.992 230.321 28.8 231.233 28.8H232.001V31.584H230.873C229.977 31.584 229.257 31.864 228.713 32.424C228.169 32.968 227.897 33.736 227.897 34.728V42H224.753ZM239.922 42.288C238.578 42.288 237.402 41.984 236.394 41.376C235.386 40.768 234.602 39.944 234.042 38.904C233.482 37.864 233.202 36.712 233.202 35.448C233.202 34.136 233.482 32.976 234.042 31.968C234.618 30.944 235.394 30.136 236.37 29.544C237.362 28.952 238.466 28.656 239.682 28.656C240.706 28.656 241.602 28.824 242.37 29.16C243.154 29.496 243.818 29.96 244.362 30.552C244.906 31.144 245.322 31.824 245.61 32.592C245.898 33.344 246.042 34.16 246.042 35.04C246.042 35.264 246.026 35.496 245.994 35.736C245.978 35.976 245.938 36.184 245.874 36.36H235.794V33.96H244.098L242.61 35.088C242.754 34.352 242.714 33.696 242.49 33.12C242.282 32.544 241.93 32.088 241.434 31.752C240.954 31.416 240.37 31.248 239.682 31.248C239.026 31.248 238.442 31.416 237.93 31.752C237.418 32.072 237.026 32.552 236.754 33.192C236.498 33.816 236.402 34.576 236.466 35.472C236.402 36.272 236.506 36.984 236.778 37.608C237.066 38.216 237.482 38.688 238.026 39.024C238.586 39.36 239.226 39.528 239.946 39.528C240.666 39.528 241.274 39.376 241.77 39.072C242.282 38.768 242.682 38.36 242.97 37.848L245.514 39.096C245.258 39.72 244.858 40.272 244.314 40.752C243.77 41.232 243.122 41.608 242.37 41.88C241.634 42.152 240.818 42.288 239.922 42.288ZM248.425 42V28.944H251.377V31.848L251.137 31.416C251.441 30.44 251.913 29.76 252.553 29.376C253.209 28.992 253.993 28.8 254.905 28.8H255.673V31.584H254.545C253.649 31.584 252.929 31.864 252.385 32.424C251.841 32.968 251.569 33.736 251.569 34.728V42H248.425Z" fill="white"/>
<rect x="272" y="8" width="48" height="48" rx="24" fill="white"/>
</svg>
