<svg width="195" height="60" viewBox="0 0 195 60" fill="none" xmlns="http://www.w3.org/2000/svg">
<rect width="195" height="60" rx="4" fill="#00283C"/>
<path d="M73.1793 38.5L69.1793 31.55H67.0043V38.5H64.1543V21.125H70.1543C71.4876 21.125 72.6126 21.3583 73.5293 21.825C74.4626 22.2917 75.1543 22.9167 75.6043 23.7C76.071 24.4833 76.3043 25.3583 76.3043 26.325C76.3043 27.4583 75.971 28.4917 75.3043 29.425C74.6543 30.3417 73.646 30.9667 72.2793 31.3L76.5793 38.5H73.1793ZM67.0043 29.275H70.1543C71.221 29.275 72.021 29.0083 72.5543 28.475C73.1043 27.9417 73.3793 27.225 73.3793 26.325C73.3793 25.425 73.1126 24.725 72.5793 24.225C72.046 23.7083 71.2376 23.45 70.1543 23.45H67.0043V29.275ZM92.5752 31.275C92.5752 31.7917 92.5419 32.2583 92.4752 32.675H81.9502C82.0335 33.775 82.4419 34.6583 83.1752 35.325C83.9085 35.9917 84.8085 36.325 85.8752 36.325C87.4085 36.325 88.4919 35.6833 89.1252 34.4H92.2002C91.7835 35.6667 91.0252 36.7083 89.9252 37.525C88.8419 38.325 87.4919 38.725 85.8752 38.725C84.5585 38.725 83.3752 38.4333 82.3252 37.85C81.2919 37.25 80.4752 36.4167 79.8752 35.35C79.2919 34.2667 79.0002 33.0167 79.0002 31.6C79.0002 30.1833 79.2835 28.9417 79.8502 27.875C80.4335 26.7917 81.2419 25.9583 82.2752 25.375C83.3252 24.7917 84.5252 24.5 85.8752 24.5C87.1752 24.5 88.3335 24.7833 89.3502 25.35C90.3669 25.9167 91.1585 26.7167 91.7252 27.75C92.2919 28.7667 92.5752 29.9417 92.5752 31.275ZM89.6002 30.375C89.5835 29.325 89.2085 28.4833 88.4752 27.85C87.7419 27.2167 86.8335 26.9 85.7502 26.9C84.7669 26.9 83.9252 27.2167 83.2252 27.85C82.5252 28.4667 82.1085 29.3083 81.9752 30.375H89.6002ZM100.93 24.5C101.997 24.5 102.938 24.7167 103.755 25.15C104.588 25.5667 105.238 26.0917 105.705 26.725V24.725H108.58V38.725C108.58 39.9917 108.313 41.1167 107.78 42.1C107.247 43.1 106.472 43.8833 105.455 44.45C104.455 45.0167 103.255 45.3 101.855 45.3C99.9882 45.3 98.4382 44.8583 97.2049 43.975C95.9715 43.1083 95.2715 41.925 95.1049 40.425H97.9299C98.1465 41.1417 98.6049 41.7167 99.3049 42.15C100.022 42.6 100.872 42.825 101.855 42.825C103.005 42.825 103.93 42.475 104.63 41.775C105.347 41.075 105.705 40.0583 105.705 38.725V36.425C105.222 37.075 104.563 37.625 103.73 38.075C102.913 38.5083 101.98 38.725 100.93 38.725C99.7299 38.725 98.6299 38.425 97.6299 37.825C96.6465 37.2083 95.8632 36.3583 95.2799 35.275C94.7132 34.175 94.4299 32.9333 94.4299 31.55C94.4299 30.1667 94.7132 28.9417 95.2799 27.875C95.8632 26.8083 96.6465 25.9833 97.6299 25.4C98.6299 24.8 99.7299 24.5 100.93 24.5ZM105.705 31.6C105.705 30.65 105.505 29.825 105.105 29.125C104.722 28.425 104.213 27.8917 103.58 27.525C102.947 27.1583 102.263 26.975 101.53 26.975C100.797 26.975 100.113 27.1583 99.4799 27.525C98.8465 27.875 98.3299 28.4 97.9299 29.1C97.5465 29.7833 97.3549 30.6 97.3549 31.55C97.3549 32.5 97.5465 33.3333 97.9299 34.05C98.3299 34.7667 98.8465 35.3167 99.4799 35.7C100.13 36.0667 100.813 36.25 101.53 36.25C102.263 36.25 102.947 36.0667 103.58 35.7C104.213 35.3333 104.722 34.8 105.105 34.1C105.505 33.3833 105.705 32.55 105.705 31.6ZM113.773 22.9C113.257 22.9 112.823 22.725 112.473 22.375C112.123 22.025 111.948 21.5917 111.948 21.075C111.948 20.5583 112.123 20.125 112.473 19.775C112.823 19.425 113.257 19.25 113.773 19.25C114.273 19.25 114.698 19.425 115.048 19.775C115.398 20.125 115.573 20.5583 115.573 21.075C115.573 21.5917 115.398 22.025 115.048 22.375C114.698 22.725 114.273 22.9 113.773 22.9ZM115.173 24.725V38.5H112.323V24.725H115.173ZM123.915 38.725C122.832 38.725 121.857 38.5333 120.99 38.15C120.14 37.75 119.465 37.2167 118.965 36.55C118.465 35.8667 118.198 35.1083 118.165 34.275H121.115C121.165 34.8583 121.44 35.35 121.94 35.75C122.457 36.1333 123.098 36.325 123.865 36.325C124.665 36.325 125.282 36.175 125.715 35.875C126.165 35.5583 126.39 35.1583 126.39 34.675C126.39 34.1583 126.14 33.775 125.64 33.525C125.157 33.275 124.382 33 123.315 32.7C122.282 32.4167 121.44 32.1417 120.79 31.875C120.14 31.6083 119.573 31.2 119.09 30.65C118.623 30.1 118.39 29.375 118.39 28.475C118.39 27.7417 118.607 27.075 119.04 26.475C119.473 25.8583 120.09 25.375 120.89 25.025C121.707 24.675 122.64 24.5 123.69 24.5C125.257 24.5 126.515 24.9 127.465 25.7C128.432 26.4833 128.948 27.5583 129.015 28.925H126.165C126.115 28.3083 125.865 27.8167 125.415 27.45C124.965 27.0833 124.357 26.9 123.59 26.9C122.84 26.9 122.265 27.0417 121.865 27.325C121.465 27.6083 121.265 27.9833 121.265 28.45C121.265 28.8167 121.398 29.125 121.665 29.375C121.932 29.625 122.257 29.825 122.64 29.975C123.023 30.1083 123.59 30.2833 124.34 30.5C125.34 30.7667 126.157 31.0417 126.79 31.325C127.44 31.5917 127.998 31.9917 128.465 32.525C128.932 33.0583 129.173 33.7667 129.19 34.65C129.19 35.4333 128.973 36.1333 128.54 36.75C128.107 37.3667 127.49 37.85 126.69 38.2C125.907 38.55 124.982 38.725 123.915 38.725ZM135.595 27.05V34.675C135.595 35.1917 135.711 35.5667 135.945 35.8C136.195 36.0167 136.611 36.125 137.195 36.125H138.945V38.5H136.695C135.411 38.5 134.428 38.2 133.745 37.6C133.061 37 132.72 36.025 132.72 34.675V27.05H131.095V24.725H132.72V21.3H135.595V24.725H138.945V27.05H135.595ZM154.196 31.275C154.196 31.7917 154.163 32.2583 154.096 32.675H143.571C143.655 33.775 144.063 34.6583 144.796 35.325C145.53 35.9917 146.43 36.325 147.496 36.325C149.03 36.325 150.113 35.6833 150.746 34.4H153.821C153.405 35.6667 152.646 36.7083 151.546 37.525C150.463 38.325 149.113 38.725 147.496 38.725C146.18 38.725 144.996 38.4333 143.946 37.85C142.913 37.25 142.096 36.4167 141.496 35.35C140.913 34.2667 140.621 33.0167 140.621 31.6C140.621 30.1833 140.905 28.9417 141.471 27.875C142.055 26.7917 142.863 25.9583 143.896 25.375C144.946 24.7917 146.146 24.5 147.496 24.5C148.796 24.5 149.955 24.7833 150.971 25.35C151.988 25.9167 152.78 26.7167 153.346 27.75C153.913 28.7667 154.196 29.9417 154.196 31.275ZM151.221 30.375C151.205 29.325 150.83 28.4833 150.096 27.85C149.363 27.2167 148.455 26.9 147.371 26.9C146.388 26.9 145.546 27.2167 144.846 27.85C144.146 28.4667 143.73 29.3083 143.596 30.375H151.221ZM159.851 26.725C160.268 26.025 160.818 25.4833 161.501 25.1C162.201 24.7 163.026 24.5 163.976 24.5V27.45H163.251C162.134 27.45 161.284 27.7333 160.701 28.3C160.134 28.8667 159.851 29.85 159.851 31.25V38.5H157.001V24.725H159.851V26.725Z" fill="white"/>
<path fill-rule="evenodd" clip-rule="evenodd" d="M38.5 19.9684C35.2783 19.9684 32.6667 22.8809 32.6667 26.4735C32.6667 30.0661 35.2783 32.9785 38.5 32.9785C41.7217 32.9785 44.3333 30.0661 44.3333 26.4735C44.3333 22.8809 41.7217 19.9684 38.5 19.9684ZM31 26.4735C31 21.8544 34.3579 18.1099 38.5 18.1099C42.6421 18.1099 46 21.8544 46 26.4735C46 31.0926 42.6421 34.8371 38.5 34.8371C34.3579 34.8371 31 31.0926 31 26.4735Z" fill="white"/>
<path fill-rule="evenodd" clip-rule="evenodd" d="M38.5 34.6047C36.5004 34.6047 34.536 35.1629 32.8044 36.2232C31.0727 37.2836 29.6348 38.8087 28.6352 40.6452C28.3932 41.0896 27.8574 41.2419 27.4383 40.9854C27.0192 40.7288 26.8756 40.1606 27.1175 39.7162C28.2709 37.5971 29.9301 35.8374 31.9281 34.6139C33.9262 33.3904 36.1928 32.7463 38.5 32.7463C40.8072 32.7463 43.0738 33.3904 45.0719 34.6139C47.0699 35.8374 48.7291 37.5971 49.8825 39.7162C50.1244 40.1606 49.9808 40.7288 49.5617 40.9854C49.1426 41.2419 48.6068 41.0896 48.3648 40.6452C47.3652 38.8087 45.9273 37.2836 44.1956 36.2232C42.464 35.1629 40.4996 34.6047 38.5 34.6047Z" fill="white"/>
</svg>
