<svg width="100" height="100" viewBox="0 0 100 100" fill="none" xmlns="http://www.w3.org/2000/svg">
<path d="M40.668 83.0002L17.668 86.0002L14.168 69.5002L31.668 66.5002L40.668 83.0002Z" fill="#00415C"/>
<path d="M90.668 81.5002L69.668 84.0002L66.168 67.5002L81.668 65.0002L90.668 81.5002Z" fill="#00415C"/>
<path d="M41.1938 72.8811L40.1679 73.0004L48.6679 88.0004L65.1679 87.0004L61.7008 70.6553C60.9378 71.3457 60.2021 71.9888 59.5055 72.5817C54.2013 77.0954 46.5995 77.1952 41.1938 72.8811Z" fill="#00415C"/>
<path fill-rule="evenodd" clip-rule="evenodd" d="M56.265 68.7738C63.9499 62.2341 76.168 49.6417 76.168 35.6822C76.168 28.7383 73.4287 22.0789 68.5528 17.1688C63.6768 12.2588 57.0636 9.50035 50.168 9.50035C43.2724 9.50035 36.6592 12.2588 31.7832 17.1688C26.9073 22.0789 24.168 28.7383 24.168 35.6822C24.168 49.6417 36.3861 62.2341 44.071 68.7738C47.6271 71.8001 52.7089 71.8001 56.265 68.7738ZM62.168 35.5004C62.168 42.1278 56.7954 47.5004 50.168 47.5004C43.5406 47.5004 38.168 42.1278 38.168 35.5004C38.168 28.8729 43.5406 23.5004 50.168 23.5004C56.7954 23.5004 62.168 28.8729 62.168 35.5004Z" fill="#00415C"/>
</svg>
