<svg width="299" height="50" viewBox="0 0 299 50" fill="none" xmlns="http://www.w3.org/2000/svg">
<path d="M11.0191 4.6V49H0.759063V4.6H11.0191ZM33.6944 49.48C30.4144 49.48 27.4544 48.78 24.8144 47.38C22.2144 45.98 20.1544 43.98 18.6344 41.38C17.1544 38.78 16.4144 35.74 16.4144 32.26C16.4144 28.82 17.1744 25.8 18.6944 23.2C20.2144 20.56 22.2944 18.54 24.9344 17.14C27.5744 15.74 30.5344 15.04 33.8144 15.04C37.0944 15.04 40.0544 15.74 42.6944 17.14C45.3344 18.54 47.4144 20.56 48.9344 23.2C50.4544 25.8 51.2144 28.82 51.2144 32.26C51.2144 35.7 50.4344 38.74 48.8744 41.38C47.3544 43.98 45.2544 45.98 42.5744 47.38C39.9344 48.78 36.9744 49.48 33.6944 49.48ZM33.6944 40.6C35.6544 40.6 37.3144 39.88 38.6744 38.44C40.0744 37 40.7744 34.94 40.7744 32.26C40.7744 29.58 40.0944 27.52 38.7344 26.08C37.4144 24.64 35.7744 23.92 33.8144 23.92C31.8144 23.92 30.1544 24.64 28.8344 26.08C27.5144 27.48 26.8544 29.54 26.8544 32.26C26.8544 34.94 27.4944 37 28.7744 38.44C30.0944 39.88 31.7344 40.6 33.6944 40.6ZM54.6175 32.26C54.6175 28.78 55.3175 25.74 56.7175 23.14C58.1575 20.54 60.1375 18.54 62.6575 17.14C65.2175 15.74 68.1375 15.04 71.4175 15.04C75.6175 15.04 79.1175 16.14 81.9175 18.34C84.7575 20.54 86.6175 23.64 87.4975 27.64H76.5775C75.6575 25.08 73.8775 23.8 71.2375 23.8C69.3575 23.8 67.8575 24.54 66.7375 26.02C65.6175 27.46 65.0575 29.54 65.0575 32.26C65.0575 34.98 65.6175 37.08 66.7375 38.56C67.8575 40 69.3575 40.72 71.2375 40.72C73.8775 40.72 75.6575 39.44 76.5775 36.88H87.4975C86.6175 40.8 84.7575 43.88 81.9175 46.12C79.0775 48.36 75.5775 49.48 71.4175 49.48C68.1375 49.48 65.2175 48.78 62.6575 47.38C60.1375 45.98 58.1575 43.98 56.7175 41.38C55.3175 38.78 54.6175 35.74 54.6175 32.26ZM113.446 49L103.246 34.96V49H92.9856V4.6H103.246V29.14L113.386 15.52H126.046L112.126 32.32L126.166 49H113.446ZM128.035 32.26C128.035 28.78 128.735 25.74 130.135 23.14C131.575 20.54 133.555 18.54 136.075 17.14C138.635 15.74 141.555 15.04 144.835 15.04C149.035 15.04 152.535 16.14 155.335 18.34C158.175 20.54 160.035 23.64 160.915 27.64H149.995C149.075 25.08 147.295 23.8 144.655 23.8C142.775 23.8 141.275 24.54 140.155 26.02C139.035 27.46 138.475 29.54 138.475 32.26C138.475 34.98 139.035 37.08 140.155 38.56C141.275 40 142.775 40.72 144.655 40.72C147.295 40.72 149.075 39.44 149.995 36.88H160.915C160.035 40.8 158.175 43.88 155.335 46.12C152.495 48.36 148.995 49.48 144.835 49.48C141.555 49.48 138.635 48.78 136.075 47.38C133.555 45.98 131.575 43.98 130.135 41.38C128.735 38.78 128.035 35.74 128.035 32.26ZM186.984 15.16C190.824 15.16 193.904 16.44 196.224 19C198.544 21.52 199.704 25 199.704 29.44V49H189.504V30.82C189.504 28.58 188.924 26.84 187.764 25.6C186.604 24.36 185.044 23.74 183.084 23.74C181.124 23.74 179.564 24.36 178.404 25.6C177.244 26.84 176.664 28.58 176.664 30.82V49H166.404V4.6H176.664V20.02C177.704 18.54 179.124 17.36 180.924 16.48C182.724 15.6 184.744 15.16 186.984 15.16ZM204.793 32.2C204.793 28.76 205.433 25.74 206.713 23.14C208.033 20.54 209.813 18.54 212.053 17.14C214.293 15.74 216.793 15.04 219.553 15.04C221.913 15.04 223.973 15.52 225.733 16.48C227.533 17.44 228.913 18.7 229.873 20.26V15.52H240.133V49H229.873V44.26C228.873 45.82 227.473 47.08 225.673 48.04C223.913 49 221.853 49.48 219.493 49.48C216.773 49.48 214.293 48.78 212.053 47.38C209.813 45.94 208.033 43.92 206.713 41.32C205.433 38.68 204.793 35.64 204.793 32.2ZM229.873 32.26C229.873 29.7 229.153 27.68 227.713 26.2C226.313 24.72 224.593 23.98 222.553 23.98C220.513 23.98 218.773 24.72 217.333 26.2C215.933 27.64 215.233 29.64 215.233 32.2C215.233 34.76 215.933 36.8 217.333 38.32C218.773 39.8 220.513 40.54 222.553 40.54C224.593 40.54 226.313 39.8 227.713 38.32C229.153 36.84 229.873 34.82 229.873 32.26ZM252.716 12.04C250.916 12.04 249.436 11.52 248.276 10.48C247.156 9.4 246.596 8.08 246.596 6.52C246.596 4.92 247.156 3.6 248.276 2.56C249.436 1.48 250.916 0.939996 252.716 0.939996C254.476 0.939996 255.916 1.48 257.036 2.56C258.196 3.6 258.776 4.92 258.776 6.52C258.776 8.08 258.196 9.4 257.036 10.48C255.916 11.52 254.476 12.04 252.716 12.04ZM257.816 15.52V49H247.556V15.52H257.816ZM285.651 15.16C289.571 15.16 292.691 16.44 295.011 19C297.371 21.52 298.551 25 298.551 29.44V49H288.351V30.82C288.351 28.58 287.771 26.84 286.611 25.6C285.451 24.36 283.891 23.74 281.931 23.74C279.971 23.74 278.411 24.36 277.251 25.6C276.091 26.84 275.511 28.58 275.511 30.82V49H265.251V15.52H275.511V19.96C276.551 18.48 277.951 17.32 279.711 16.48C281.471 15.6 283.451 15.16 285.651 15.16Z" fill="#00415C"/>
</svg>
