<svg width="100" height="100" viewBox="0 0 100 100" fill="none" xmlns="http://www.w3.org/2000/svg">
<path fill-rule="evenodd" clip-rule="evenodd" d="M57.4703 15.5533C57.4703 15.3151 57.3757 15.0867 57.2073 14.9183C57.0389 14.7499 56.8105 14.6553 56.5723 14.6553H31.4287C28.8089 14.6553 26.2964 15.696 24.4439 17.5484C22.5915 19.4009 21.5508 21.9134 21.5508 24.5331V74.8205C21.5508 77.4403 22.5915 79.9527 24.4439 81.8052C26.2964 83.6577 28.8089 84.6984 31.4287 84.6984H67.3482C69.968 84.6984 72.4804 83.6577 74.3329 81.8052C76.1854 79.9527 77.2261 77.4403 77.2261 74.8205V70.8658L76.038 72.0505L66.3755 74.2758L66.0516 74.3085C65.6497 74.3491 65.2452 74.3559 64.8425 74.3289C63.8628 74.2892 62.901 74.0482 62.0171 73.6201C61.0592 73.1562 60.2171 72.4841 59.5522 71.653C58.8873 70.8219 58.4164 69.8527 58.1741 68.8163C57.9317 67.78 57.9239 66.7026 58.1513 65.6628L58.1581 65.6314L60.3187 56.3068L77.223 39.3553C77.2057 39.1441 77.114 38.945 76.9631 38.794C76.7946 38.6256 76.5662 38.531 76.3281 38.531H60.1643C59.4498 38.531 58.7646 38.2472 58.2594 37.7419C57.7542 37.2367 57.4703 36.5515 57.4703 35.837V15.5533ZM28.6991 43.9661C28.6991 42.5378 29.857 41.3799 31.2853 41.3799H42.4922C43.9205 41.3799 45.0784 42.5378 45.0784 43.9661C45.0784 45.3944 43.9205 46.5523 42.4922 46.5523H31.2853C29.857 46.5523 28.6991 45.3944 28.6991 43.9661ZM28.6991 56.8968C28.6991 55.4684 29.857 54.3105 31.2853 54.3105H51.1129C52.5412 54.3105 53.6991 55.4684 53.6991 56.8968C53.6991 58.3251 52.5412 59.483 51.1129 59.483H31.2853C29.857 59.483 28.6991 58.3251 28.6991 56.8968ZM28.699 69.8284C28.699 68.4001 29.8569 67.2422 31.2852 67.2422H51.1128C52.5411 67.2422 53.699 68.4001 53.699 69.8284C53.699 71.2567 52.5411 72.4146 51.1128 72.4146H31.2852C29.8569 72.4146 28.699 71.2567 28.699 69.8284Z" fill="#00415C"/>
<path d="M77.2261 63.5609V46.6774L65.0242 58.9133L63.2043 66.7677C63.1415 67.0548 63.1437 67.3523 63.2106 67.6385C63.2775 67.9247 63.4075 68.1923 63.5911 68.4218C63.7747 68.6513 64.0073 68.8369 64.2718 68.965C64.5363 69.0931 64.8261 69.1605 65.12 69.1623C65.2569 69.1761 65.3949 69.1761 65.5319 69.1623L73.4342 67.3424L77.2261 63.5609Z" fill="#00415C"/>
<path d="M63.1587 17.6697C63.1587 17.0424 63.7886 16.6435 64.2553 17.0356C64.6502 17.3697 65.0059 17.7583 65.3095 18.2015L75.1429 32.5092C75.3648 32.8365 75.1233 33.2592 74.7382 33.2592H63.9746C63.7582 33.2592 63.5507 33.1694 63.3977 33.0096C63.2447 32.8497 63.1587 32.633 63.1587 32.4069V17.6697Z" fill="#00415C"/>
<path d="M65.0242 58.9133L63.2043 66.7677C63.1415 67.0548 63.1437 67.3523 63.2106 67.6385C63.2775 67.9247 63.4075 68.1923 63.5911 68.4218C63.7747 68.6513 64.0073 68.8369 64.2718 68.965C64.5363 69.0931 64.8261 69.1605 65.12 69.1623C65.2569 69.1761 65.3949 69.1761 65.5319 69.1623L73.4342 67.3424L87.2966 53.5176L78.8292 45.0693L65.0242 58.9133Z" fill="#00415C"/>
<path d="M93.3767 44.6602L87.7253 39.0088C87.3538 38.6392 86.851 38.4316 86.3269 38.4316C85.8027 38.4316 85.2999 38.6392 84.9284 39.0088L81.7866 42.1506L90.2445 50.6084L93.3862 47.4667C93.5701 47.2819 93.7157 47.0627 93.8148 46.8215C93.9138 46.5804 93.9643 46.3221 93.9634 46.0614C93.9625 45.8008 93.9103 45.5428 93.8096 45.3024C93.7089 45.0619 93.5618 44.8437 93.3767 44.6602Z" fill="#00415C"/>
</svg>
