<svg width="76" height="87" viewBox="0 0 76 87" fill="none" xmlns="http://www.w3.org/2000/svg">
<path fill-rule="evenodd" clip-rule="evenodd" d="M31.4294 3.41177C34.5716 0.175251 39.7669 0.175255 42.9091 3.41177L44.7022 5.25864C46.2234 6.82551 48.319 7.70239 50.5028 7.6858L53.0905 7.66614C57.5555 7.63223 61.1839 11.2599 61.151 15.7249L61.1299 18.5902C61.1141 20.7328 61.9584 22.7922 63.4739 24.3071L65.5093 26.3417C68.6349 29.4662 68.6349 34.5331 65.5093 37.6576L63.4739 39.6922C61.9584 41.207 61.1141 43.2665 61.1299 45.4091L61.151 48.2744C61.1839 52.7394 57.5555 56.3671 53.0905 56.3331L50.5028 56.3135C48.319 56.2969 46.2234 57.1738 44.7022 58.7406L42.9091 60.5875C39.7669 63.824 34.5716 63.824 31.4294 60.5875L29.6364 58.7406C28.1152 57.1738 26.0195 56.2969 23.8357 56.3135L21.2481 56.3331C16.7831 56.3671 13.1546 52.7394 13.1876 48.2744L13.2087 45.4091C13.2245 43.2665 12.3801 41.207 10.8647 39.6922L8.82931 37.6576C5.70371 34.5331 5.70371 29.4662 8.82932 26.3417L10.8647 24.3071C12.3801 22.7922 13.2245 20.7328 13.2087 18.5902L13.1876 15.7249C13.1546 11.2599 16.7831 7.63223 21.2481 7.66614L23.8357 7.6858C26.0195 7.70239 28.1152 6.82551 29.6364 5.25864L31.4294 3.41177ZM38.8666 31.5712L37.0308 29.7346C36.6103 29.314 36.0403 29.077 35.4456 29.0754C34.8508 29.0738 34.2796 29.3078 33.8569 29.7262L21.0931 41.5056C20.6283 41.9437 20.3231 42.502 20.295 43.1271C20.2815 43.4371 20.332 43.7465 20.4434 44.0362C20.5548 44.3258 20.7248 44.5893 20.9426 44.8103L23.6848 47.5828L23.687 47.5853L23.6897 47.5877C24.1134 48.01 24.6868 48.2481 25.2851 48.25H25.3681C25.9931 48.2268 26.5528 47.9336 26.9972 47.4646L38.8589 34.7592C39.0693 34.5506 39.2363 34.3026 39.3506 34.0294C39.4649 33.7561 39.5241 33.463 39.5248 33.1668C39.5255 32.8706 39.4677 32.5772 39.3548 32.3034C39.2419 32.0296 39.076 31.7807 38.8666 31.5712ZM53.621 27.8594L53.5992 27.8376L51.1896 25.4526C51.0485 25.3119 50.8809 25.2006 50.6965 25.1251C50.5121 25.0495 50.3145 25.0112 50.1152 25.0124C49.7924 25.0127 49.4778 25.1146 49.2159 25.3035C49.2159 25.2821 49.2181 25.261 49.2201 25.2412L49.2223 25.2178L49.2225 25.2138C49.2542 24.7567 49.3018 24.0685 48.8566 23.4445C48.3258 22.729 47.743 22.0536 47.1129 21.4237L47.1097 21.4202L47.1073 21.4181C46.1707 20.4956 44.1324 18.7581 41.0098 17.4848C39.8256 16.9988 38.5577 16.7492 37.2776 16.75C35.0585 16.75 33.371 17.7513 32.7249 18.3447C32.359 18.6942 32.0253 19.0759 31.7278 19.4852C31.5857 19.6813 31.5107 19.9181 31.514 20.1603C31.5172 20.4025 31.5985 20.6372 31.7459 20.8294C31.8932 21.0217 32.0986 21.1613 32.3316 21.2274C32.5646 21.2936 32.8128 21.2828 33.0392 21.1966C33.2363 21.1229 33.4378 21.0611 33.6424 21.0117C34.0686 20.9215 34.5056 20.8943 34.9397 20.9308C35.8671 21.0074 36.964 21.468 37.4492 21.8512C38.2718 22.5128 38.6677 23.4044 38.7331 24.7403C38.7457 25.0089 38.1902 26.0158 37.3268 27.1647C37.1623 27.3815 37.082 27.6506 37.1008 27.9221C37.1195 28.1936 37.236 28.4491 37.4288 28.6413L39.8482 31.0607C40.0515 31.2645 40.3252 31.3826 40.613 31.3907C40.9007 31.3988 41.1806 31.2963 41.3951 31.1043C42.0792 30.4933 43.1213 29.5722 43.4855 29.3465C44.0262 29.0139 44.4129 28.9499 44.5191 28.9387C44.7946 28.9117 45.0717 28.9701 45.3129 29.106C45.3141 29.1181 45.3128 29.1302 45.309 29.1417C45.3066 29.1491 45.3033 29.156 45.2991 29.1624C45.2967 29.1661 45.294 29.1696 45.2911 29.1728L45.1631 29.2945L45.142 29.3142C45.0006 29.455 44.8885 29.6225 44.8121 29.8069C44.7357 29.9913 44.6965 30.189 44.6969 30.3886C44.6972 30.5882 44.737 30.7857 44.814 30.9699C44.891 31.154 45.0037 31.3211 45.1456 31.4615L47.5545 33.8458C47.6956 33.9864 47.8633 34.0976 48.0477 34.173C48.2321 34.2485 48.4296 34.2866 48.6288 34.2853C49.0289 34.2859 49.4132 34.1293 49.699 33.8493L53.6013 29.9948C53.6147 29.9814 53.6281 29.9674 53.6407 29.9533C53.9025 29.6663 54.046 29.2909 54.0423 28.9025C54.0387 28.5141 53.8882 28.1414 53.621 27.8594Z" fill="#00415C"/>
<path d="M43.0129 67.7415L52.0133 85.1376C52.7436 86.5491 54.7492 86.5861 55.5309 85.2023L60.0948 77.1244L55.4617 69.543C54.8857 68.6005 55.1829 67.3695 56.1254 66.7935C57.0679 66.2176 58.2989 66.5147 58.8748 67.4572L63.5596 75.1232L73.1264 76.0987C74.7075 76.2599 75.8359 74.6016 75.1056 73.19L65.5813 54.7813C63.2332 59.2979 58.4952 62.3741 53.0449 62.3327L50.4573 62.3131C49.9113 62.3089 49.3874 62.5281 49.0071 62.9199L47.2141 64.7667C45.9699 66.0483 44.5417 67.0398 43.0129 67.7415Z" fill="#00415C"/>
<path d="M9.63527 56.2442L0.867903 73.1898C0.137579 74.6014 1.26601 76.2598 2.84712 76.0985L12.2684 75.1379L16.9622 67.457C17.5382 66.5145 18.7692 66.2174 19.7117 66.7934C20.6542 67.3693 20.9513 68.6003 20.3753 69.5428L15.8132 77.0081L20.4426 85.2021C21.2244 86.5859 23.2299 86.5489 23.9602 85.1374L32.6822 68.2795C30.6425 67.5915 28.7303 66.4205 27.1245 64.7665L25.3315 62.9197C24.9512 62.5279 24.4273 62.3087 23.8813 62.3129L21.2937 62.3325C16.4547 62.3693 12.1772 59.9485 9.63527 56.2442Z" fill="#00415C"/>
</svg>
